<svg xmlns="http://www.w3.org/2000/svg" xmlns:xlink="http://www.w3.org/1999/xlink" version="1.1" x="0px" y="0px" viewBox="1 -1 100 125" style="enable-background:new 1 -1 100 100;" xml:space="preserve"><title>20</title><title>20</title><title>20</title><title>20</title><g><path d="M83.4,44c0.9,2.7,3.4,4.6,6.3,4.6c3.7,0,6.6-3,6.6-6.6c0-3.7-3-6.6-6.6-6.6c-3,0-5.5,1.9-6.3,4.6H72.6v-2.5   c0-5.5-4.5-10-10-10h-2.7v-5.9c0-2.8,2.2-5,5-5h2.7c0.9,2.7,3.4,4.6,6.3,4.6c3.7,0,6.6-3,6.6-6.6c0-3.7-3-6.6-6.6-6.6   c-3,0-5.5,1.9-6.3,4.6h-2.7c-5,0-9,4-9,9v5.9h-11V16.6c2.7-0.9,4.6-3.4,4.6-6.3c0-3.7-3-6.6-6.6-6.6s-6.6,3-6.6,6.6   c0,3,1.9,5.5,4.6,6.3v10.8h-1.5c-5.5,0-10,4.5-10,10v2.5h-5.9c-2.8,0-5-2.2-5-5v-2.7c2.7-0.9,4.6-3.4,4.6-6.3c0-3.7-3-6.6-6.6-6.6   c-3.7,0-6.6,3-6.6,6.6c0,3,1.9,5.5,4.6,6.3v2.7c0,5,4,9,9,9h5.9v11H18.6c-0.9-2.7-3.4-4.6-6.3-4.6c-3.7,0-6.6,3-6.6,6.6   s3,6.6,6.6,6.6c3,0,5.5-1.9,6.3-4.6h10.8v1.7c0,5.5,4.5,10,10,10h2.5v5.9c0,2.8-2.2,5-5,5h-2.7c-0.9-2.7-3.4-4.6-6.3-4.6   c-3.7,0-6.6,3-6.6,6.6s3,6.6,6.6,6.6c3,0,5.5-1.9,6.3-4.6h2.7c5,0,9-4,9-9v-5.9h11v10.8c-2.7,0.9-4.6,3.4-4.6,6.3   c0,3.7,3,6.6,6.6,6.6s6.6-3,6.6-6.6c0-3-1.9-5.5-4.6-6.3V70.6h1.7c5.5,0,10-4.5,10-10V59h5.9c2.8,0,5,2.2,5,5v2.7   c-2.7,0.9-4.6,3.4-4.6,6.3c0,3.7,3,6.6,6.6,6.6s6.6-3,6.6-6.6c0-3-1.9-5.5-4.6-6.3V64c0-5-4-9-9-9h-5.9V44H83.4z M89.7,39.3   c1.4,0,2.6,1.2,2.6,2.6c0,1.4-1.2,2.6-2.6,2.6s-2.6-1.2-2.6-2.6C87.1,40.5,88.3,39.3,89.7,39.3z M73.9,11.9c1.4,0,2.6,1.2,2.6,2.6   c0,1.4-1.2,2.6-2.6,2.6s-2.6-1.2-2.6-2.6C71.3,13.1,72.5,11.9,73.9,11.9z M16.6,28.5c-1.4,0-2.6-1.2-2.6-2.6c0-1.4,1.2-2.6,2.6-2.6   c1.4,0,2.6,1.2,2.6,2.6C19.2,27.3,18,28.5,16.6,28.5z M12.3,59.5c-1.4,0-2.6-1.2-2.6-2.6s1.2-2.6,2.6-2.6s2.6,1.2,2.6,2.6   S13.7,59.5,12.3,59.5z M27.9,86.1c-1.4,0-2.6-1.2-2.6-2.6s1.2-2.6,2.6-2.6c1.4,0,2.6,1.2,2.6,2.6S29.3,86.1,27.9,86.1z M40.3,10.3   c0-1.4,1.2-2.6,2.6-2.6s2.6,1.2,2.6,2.6s-1.2,2.6-2.6,2.6S40.3,11.7,40.3,10.3z M61.5,87.7c0,1.4-1.2,2.6-2.6,2.6s-2.6-1.2-2.6-2.6   s1.2-2.6,2.6-2.6S61.5,86.3,61.5,87.7z M62.6,58.6c0,1.1-0.9,2-2,2H41.4c-1.1,0-2-0.9-2-2V39.4c0-1.1,0.9-2,2-2h19.2   c1.1,0,2,0.9,2,2V58.6z M85.4,70.4c1.4,0,2.6,1.2,2.6,2.6s-1.2,2.6-2.6,2.6s-2.6-1.2-2.6-2.6S84,70.4,85.4,70.4z"/><rect x="43.4" y="41.4" width="15.2" height="15.2"/></g><text x="1" y="114" fill="#000000" font-size="5px" font-weight="bold" font-family="'Helvetica Neue', Helvetica, Arial-Unicode, Arial, Sans-serif">Created by Jugalbandi</text><text x="1" y="119" fill="#000000" font-size="5px" font-weight="bold" font-family="'Helvetica Neue', Helvetica, Arial-Unicode, Arial, Sans-serif">from the Noun Project</text></svg>