<svg xmlns="http://www.w3.org/2000/svg" xmlns:xlink="http://www.w3.org/1999/xlink" version="1.1" x="0px" y="0px" viewBox="0 0 100 125" enable-background="new 0 0 100 100" xml:space="preserve"><path d="M52,43c0,1.1-0.9,2-2,2c-1.1,0-2-0.9-2-2s0.9-2,2-2C51.1,41,52,41.9,52,43z M40,67c-1.4-1.4-1.4-3.6,0-4.9  c1.4-1.399,12.9-8,12.9-8S46.3,65.6,45,67C43.6,68.3,41.4,68.3,40,67z M42.5,65.5c0.6,0,1-0.4,1-1s-0.4-1-1-1s-1,0.4-1,1  S41.9,65.5,42.5,65.5z M67,43c0,9.2-7.3,16.6-16.3,17c1.5-2.6,2.899-4.9,3.2-5.4C54.1,54.2,54.1,53.7,53.7,53.4  c-0.279-0.42-0.791-0.505-1.2-0.301c-0.8,0.4-5.6,3.2-9.2,5.4h-0.2C37.2,55.9,33,49.9,33,43c0-9.4,7.6-17,17-17  C59.4,26,67,33.6,67,43z M56,43c0-3.3-2.7-6-6-6s-6,2.7-6,6s2.7,6,6,6S56,46.3,56,43z M35,64v-4h-3v11.1c2,0.4,3.5,1.9,3.9,3.9H47  v-3h-4L35,64z M74,23v54c0,2.2-1.8,4-4,4H30c-2.2,0-4-1.8-4-4V23c0-2.2,1.8-4,4-4h40C72.2,19,74,20.8,74,23z M29,24c0,1.1,0.9,2,2,2  s2-0.9,2-2s-0.9-2-2-2S29,22.9,29,24z M33,76c0-1.1-0.9-2-2-2s-2,0.9-2,2s0.9,2,2,2S33,77.1,33,76z M69,72V43c0-10.5-8.5-19-19-19  s-19,8.5-19,19v29c2.2,0,4,1.8,4,4h30C65,73.8,66.8,72,69,72z M71,76c0-1.1-0.9-2-2-2s-2,0.9-2,2s0.9,2,2,2S71,77.1,71,76z M71,24  c0-1.1-0.9-2-2-2s-2,0.9-2,2s0.9,2,2,2S71,25.1,71,24z"/><text x="0" y="115" fill="#000000" font-size="5px" font-weight="bold" font-family="'Helvetica Neue', Helvetica, Arial-Unicode, Arial, Sans-serif">Created by Setyo Ari Wibowo</text><text x="0" y="120" fill="#000000" font-size="5px" font-weight="bold" font-family="'Helvetica Neue', Helvetica, Arial-Unicode, Arial, Sans-serif">from the Noun Project</text></svg>