<svg xmlns="http://www.w3.org/2000/svg" xmlns:xlink="http://www.w3.org/1999/xlink" version="1.1" x="0px" y="0px" viewBox="0 0 66 82.5" enable-background="new 0 0 66 66" xml:space="preserve"><g><rect x="14.253" y="41.331" transform="matrix(0.7071 -0.7071 0.7071 0.7071 -27.1726 25.207)" width="5.176" height="8.146"/><polygon points="21.651,34.834 27.411,40.594 31.071,36.924 25.311,31.164  "/><path d="M61.731,15.024l-6.27-6.27c-0.39-0.39-1.02-0.39-1.41,0c-0.86,0.86-2.23,0.82-3.03,0c-0.81-0.81-0.85-2.16,0-3.03   c0.19-0.18,0.29-0.44,0.29-0.7c0-0.27-0.1-0.52-0.29-0.71l-3.03-3.03c-0.37-0.37-1.04-0.37-1.41,0l-45.29,45.29   c-0.39,0.39-0.39,1.03,0,1.42l3.03,3.02c0.39,0.39,1.02,0.39,1.41,0c0.81-0.8,2.22-0.8,3.03,0c0.85,0.87,0.83,2.2,0,3.03   c-0.19,0.19-0.3,0.44-0.3,0.71c0,0.26,0.11,0.52,0.3,0.71l6.27,6.27c0.19,0.18,0.44,0.29,0.7,0.29c0.27,0,0.52-0.11,0.71-0.29   l45.29-45.29C62.121,16.054,62.121,15.414,61.731,15.024z M23.671,47.154l-5.08,5.08c-0.18,0.19-0.44,0.29-0.7,0.29   c-0.27,0-0.52-0.1-0.71-0.29l-7.17-7.17c-0.4-0.4-0.4-1.03,0-1.42l5.07-5.07c0.39-0.39,1.02-0.39,1.41,0l7.18,7.17   c0.19,0.19,0.29,0.44,0.29,0.71C23.961,46.714,23.861,46.974,23.671,47.154z M33.191,37.634l-5.08,5.08   c-0.18,0.18-0.44,0.29-0.7,0.29c-0.27,0-0.52-0.11-0.71-0.29l-7.17-7.18c-0.39-0.39-0.39-1.02,0-1.41l5.07-5.08   c0.19-0.18,0.44-0.29,0.71-0.29s0.52,0.11,0.71,0.29l7.17,7.18C33.581,36.614,33.581,37.244,33.191,37.634z M42.711,28.114   l-5.07,5.07c-0.4,0.4-1.019,0.401-1.42,0l-7.17-7.17c-0.19-0.19-0.29-0.44-0.29-0.71c0-0.26,0.1-0.52,0.29-0.7l5.07-5.08   c0.38-0.37,1.04-0.37,1.42,0l7.17,7.18C43.101,27.094,43.101,27.724,42.711,28.114z M52.231,18.594l-5.07,5.07   c-0.411,0.411-1.031,0.389-1.42,0l-7.17-7.17c-0.19-0.19-0.29-0.44-0.29-0.71c0-0.26,0.1-0.52,0.29-0.7l5.08-5.08   c0.37-0.37,1.04-0.37,1.41,0l7.17,7.17C52.621,17.564,52.621,18.204,52.231,18.594z"/><rect x="42.813" y="12.761" transform="matrix(0.7071 -0.7071 0.7071 0.7071 1.3945 37.034)" width="5.176" height="8.146"/><rect x="33.293" y="22.281" transform="matrix(0.7071 -0.7071 0.7071 0.7071 -8.1255 33.0907)" width="5.176" height="8.146"/><path d="M64.701,21.464l-2.58-2.59l-43.24,43.24l2.58,2.59c0.19,0.18,0.44,0.29,0.71,0.29s0.52-0.11,0.71-0.29l3.206-3.207   l-0.951-0.951c-0.391-0.391-0.391-1.023,0-1.414s1.023-0.391,1.414,0l0.951,0.951l2.406-2.407l-1.715-1.629   c-0.4-0.381-0.417-1.014-0.037-1.414c0.382-0.4,1.013-0.417,1.414-0.037l1.753,1.665l2.319-2.319l-0.95-0.95   c-0.391-0.391-0.391-1.023,0-1.414s1.023-0.391,1.414,0l0.95,0.95l2.426-2.427l-1.725-1.602c-0.404-0.375-0.428-1.008-0.052-1.413   c0.374-0.405,1.009-0.428,1.413-0.052l1.779,1.652l2.3-2.301l-0.949-0.949c-0.391-0.391-0.391-1.023,0-1.414s1.023-0.391,1.414,0   l0.949,0.949l2.397-2.398l-1.708-1.641c-0.398-0.383-0.411-1.016-0.029-1.414c0.385-0.399,1.017-0.411,1.414-0.029l1.738,1.669   l2.378-2.378l-0.958-0.863c-0.411-0.37-0.443-1.002-0.074-1.412c0.369-0.413,1.003-0.443,1.412-0.074l1.036,0.934l2.354-2.354   l-1.711-1.629c-0.4-0.381-0.416-1.014-0.035-1.414c0.383-0.399,1.016-0.413,1.414-0.035l1.747,1.663l2.318-2.318l-0.947-0.954   c-0.389-0.392-0.387-1.025,0.006-1.414c0.39-0.389,1.024-0.388,1.414,0.006l0.941,0.948l2.444-2.445l-1.731-1.577   c-0.408-0.372-0.438-1.005-0.065-1.413s1.004-0.438,1.413-0.065L61.576,26l3.126-3.126c0.19-0.19,0.3-0.44,0.3-0.71   C65.001,21.904,64.891,21.644,64.701,21.464z"/></g><text x="0" y="81" fill="#000000" font-size="5px" font-weight="bold" font-family="'Helvetica Neue', Helvetica, Arial-Unicode, Arial, Sans-serif">Created by ProSymbols</text><text x="0" y="86" fill="#000000" font-size="5px" font-weight="bold" font-family="'Helvetica Neue', Helvetica, Arial-Unicode, Arial, Sans-serif">from the Noun Project</text></svg>