<svg xmlns="http://www.w3.org/2000/svg" xmlns:xlink="http://www.w3.org/1999/xlink" version="1.1" x="0px" y="0px" viewBox="0 0 100 125" style="enable-background:new 0 0 100 100;" xml:space="preserve"><g><path d="M50,9.5C27.6300049,9.5,9.5,27.6300049,9.5,50S27.6300049,90.5,50,90.5S90.5,72.3699951,90.5,50S72.3699951,9.5,50,9.5z    M67.460022,57.6699829c-0.2400513,0.3599854-0.6400146,0.5499878-1.0500488,0.5300293L50.960022,57.2600098V78.789978   c0,0.6300049-0.4100342,1.1600342-0.9800415,1.289978c-0.0799561,0.0100098-0.1599731,0.0200195-0.2399902,0.0200195   c-0.4599609,0-0.8900146-0.2799683-1.0999756-0.7299805L32.4199829,43.6799927   c-0.2000122-0.4400024-0.1499634-0.960022,0.1199951-1.3599854c0.2400513-0.3500366,0.6400146-0.5400391,1.0500488-0.5200195   l15.4499512,0.9400024l0.0100098-21.5300293c0-0.6300049,0.4000244-1.1599731,0.9700317-1.2799683   c0.5499878-0.1199951,1.0999756,0.1699829,1.3399658,0.7000122l16.2200317,35.6799927   C67.7800293,56.75,67.7299805,57.2799683,67.460022,57.6699829z"/></g><text x="0" y="115" fill="#000000" font-size="5px" font-weight="bold" font-family="'Helvetica Neue', Helvetica, Arial-Unicode, Arial, Sans-serif">Created by Alone forever</text><text x="0" y="120" fill="#000000" font-size="5px" font-weight="bold" font-family="'Helvetica Neue', Helvetica, Arial-Unicode, Arial, Sans-serif">from the Noun Project</text></svg>