<svg xmlns="http://www.w3.org/2000/svg" xmlns:xlink="http://www.w3.org/1999/xlink" xml:space="preserve" version="1.1" style="shape-rendering:geometricPrecision;text-rendering:geometricPrecision;image-rendering:optimizeQuality;" viewBox="0 0 846.66 1058.325" x="0px" y="0px" fill-rule="evenodd" clip-rule="evenodd"><defs><style type="text/css">
   
    .fil0 {fill:black;fill-rule:nonzero}
   
  </style></defs><g><path class="fil0" d="M423.33 200.08c47.37,0 85.78,38.41 85.78,85.78 0,38.12 -25.18,71.65 -61.62,82.32 9.41,116.15 18.82,232.29 28.24,348.43 -34.93,0 -69.86,0 -104.79,0 9.42,-116.14 18.83,-232.28 28.24,-348.43 -36.44,-10.67 -61.62,-44.2 -61.62,-82.32 0,-47.37 38.41,-85.78 85.77,-85.78zm-208.23 -70.03c-76.61,88.94 -76.61,222.67 0,311.61l34.01 -25.56c-65.43,-73.84 -65.43,-186.65 0,-260.49l-34.01 -25.56zm42.69 32.08c-60.4,70.79 -60.4,176.66 0,247.45l34 -25.55c-49.21,-55.7 -49.21,-140.65 0,-196.35l-34 -25.55zm42.98 32.3c-44.27,52.44 -44.27,130.41 0,182.85l34 -25.55c-33.07,-37.36 -33.07,-94.39 0,-131.75l-34 -25.55zm330.8 -64.38c76.61,88.94 76.61,222.67 0,311.61l-34.02 -25.56c65.44,-73.84 65.44,-186.65 0,-260.49l34.02 -25.56zm-42.69 32.08c60.4,70.79 60.4,176.66 0,247.45l-34 -25.55c49.21,-55.7 49.21,-140.65 0,-196.35l34 -25.55zm-42.98 32.3c44.27,52.44 44.27,130.41 0,182.85l-34 -25.55c33.07,-37.36 33.07,-94.39 0,-131.75l34 -25.55zm-122.57 48.08c-23.94,0 -43.34,19.4 -43.34,43.35 0,23.94 19.4,43.34 43.34,43.34 23.95,0 43.35,-19.4 43.35,-43.34 0,-23.95 -19.4,-43.35 -43.35,-43.35z"/></g><text x="0" y="861.66" fill="#000000" font-size="5px" font-weight="bold" font-family="'Helvetica Neue', Helvetica, Arial-Unicode, Arial, Sans-serif">Created by Angelina</text><text x="0" y="866.66" fill="#000000" font-size="5px" font-weight="bold" font-family="'Helvetica Neue', Helvetica, Arial-Unicode, Arial, Sans-serif">from the Noun Project</text></svg>